<svg width="800" height="520" viewBox="0 0 800 520" fill="none" xmlns="http://www.w3.org/2000/svg">
  <rect width="800" height="520" rx="28" fill="#F4F7FB"/>
  <rect x="80" y="88" width="300" height="344" rx="20" fill="white"/>
  <rect x="420" y="130" width="300" height="302" rx="20" fill="white"/>
  <rect x="110" y="130" width="120" height="14" rx="7" fill="#D9E3F2"/>
  <rect x="110" y="162" width="220" height="10" rx="5" fill="#E7EDF7"/>
  <rect x="110" y="184" width="190" height="10" rx="5" fill="#E7EDF7"/>
  <rect x="110" y="222" width="240" height="112" rx="12" fill="#EEF3FA"/>
  <rect x="450" y="172" width="160" height="14" rx="7" fill="#D9E3F2"/>
  <rect x="450" y="204" width="220" height="10" rx="5" fill="#E7EDF7"/>
  <rect x="450" y="226" width="190" height="10" rx="5" fill="#E7EDF7"/>
  <path d="M458 342C458 333.163 465.163 326 474 326H666C674.837 326 682 333.163 682 342V360H458V342Z" fill="#EEF3FA"/>
  <path d="M474 360H666V377C666 385.837 658.837 393 650 393H490C481.163 393 474 385.837 474 377V360Z" fill="#E1EAF7"/>
  <circle cx="400" cy="98" r="48" fill="#1E3A8A" fill-opacity="0.1"/>
  <circle cx="400" cy="98" r="32" fill="#1E3A8A" fill-opacity="0.16"/>
  <path d="M401 78L407.5 91.5L422 93.5L411.5 103.5L414 118L401 111L388 118L390.5 103.5L380 93.5L394.5 91.5L401 78Z" fill="#1E3A8A"/>
</svg>
